<svg xmlns="http://www.w3.org/2000/svg" viewBox="0 0 32 32"><path d="M16 2C10.13 2 6.74 5.1 5.18 7.03c-.2-.08-.4-.16-.6-.2-.53-.11-1.31-.03-1.78.55-.39.5-.52 1.05-.64 1.66-.1.6-.16 1.28-.16 1.96a11 11 0 00.16 1.96c.12.61.25 1.15.64 1.66.32.4.74.47 1 .47H4V18h2v-3.7c.37-.23.72-.49 1.02-.8.36-.36.73-.79.73-1.5v-2c0-.66-.3-1.09-.62-1.48-.1-.13-.23-.25-.35-.38C8.06 6.54 10.86 4 16 4c5.02 0 7.8 2.42 9.13 4.03-.17.15-.33.3-.47.46-.34.4-.66.82-.66 1.51v2c0 .74.4 1.16.78 1.52.36.35.78.64 1.22.88V18h2v-2.91h.14c.27 0 .67-.06 1-.45.41-.5.56-1.05.68-1.66a10.42 10.42 0 000-3.95 3.47 3.47 0 00-.69-1.67c-.49-.58-1.25-.64-1.79-.54-.19.04-.36.11-.54.18-1.58-1.94-4.96-5-10.8-5zm-5 5c-.88 0-1.8.25-2.67 1.01-.46.4-.42 1.06 0 .86a4.68 4.68 0 012-.54c1.8 0 2.69 2.1 2.96 2.38a1 1 0 101.42-1.42C14.46 9.05 13.29 7 11 7zm10 0c-2.29 0-3.46 2.05-3.7 2.3a1 1 0 101.4 1.4c.28-.27 1.18-2.37 2.97-2.37.6 0 1.26.18 2 .54.42.2.46-.46 0-.86A3.94 3.94 0 0021 7zm6.66 1.82c.05.1.13.25.2.6a8.4 8.4 0 010 3.17c-.04.23-.08.25-.13.4a4.34 4.34 0 01-1.57-.91c-.2-.19-.16-.32-.16-.08v-2c0 .2 0 0 .18-.2.18-.21.47-.47.77-.66.28-.18.54-.28.71-.32zM4.3 8.85c.15.05.34.12.56.28.28.18.55.43.71.64.17.2.18.4.18.23v2c0-.21.02-.08-.16.1-.17.19-.47.41-.78.6-.21.12-.39.18-.57.25-.04-.13-.07-.15-.1-.35a8.92 8.92 0 010-3.2c.05-.32.11-.42.16-.55zm7.2 2.63c-1.07 0-2.5.54-2.5 1.8s1.36.46 2.43.46 2.57.72 2.57-.25-1.43-2.01-2.5-2.01zm9 0c-1.07 0-2.5 1.04-2.5 2.01 0 .97 1.5.25 2.57.25 1.07 0 2.43.8 2.43-.46s-1.43-1.8-2.5-1.8zM9 16c-.95.63-2 1.78-2 3 0 1.5 1.25 3.07 2.71 3.7 1.17.68 3.1 1.3 6.29 1.3 3.18 0 5.12-.62 6.3-1.3 1.45-.63 2.7-2.2 2.7-3.7 0-1.22-1.05-2.38-2-3 1 2 1 4-2 4-.4 0-.67 0-1-.18A5 5 0 0119 18c-2 2-4 2-6 0a4.1 4.1 0 01-1.36 1.99C8.01 19.87 8.04 17.94 9 16zm-1 8c0 1.32.8 2.26 1.52 2.6.34.17.63.24.86.29.12.21.18.35.45.71.22.3.49.6.82.87.33.26.76.53 1.35.53h6c.59 0 1.02-.27 1.35-.53.33-.27.6-.58.82-.87.29-.39.36-.55.47-.76.28-.04.4 0 .8-.2A2.97 2.97 0 0024 24h-2c0 .67-.19.73-.45.86-.26.12-.55.14-.55.14h-.61l-.28.55s-.22.43-.54.85c-.16.2-.34.4-.47.5-.14.12-.2.1-.1.1h-6c.1 0 .04.02-.1-.1a2.9 2.9 0 01-.47-.5c-.32-.42-.54-.85-.54-.85l-.07-.14-.11-.12c-.3-.3-.4-.25-.49-.27a1.12 1.12 0 00-.16-.04l-.23-.04a1.6 1.6 0 01-.43-.13c-.24-.11-.4-.13-.4-.81z"/></svg>